<svg xmlns="http://www.w3.org/2000/svg" xmlns:xlink="http://www.w3.org/1999/xlink" viewBox="0 0 124.81 194.23">
  <defs>
    <style>
      .cls-1 {fill: ##198872;}
      .cls-2 {fill: ##ED7838;}
      .cls-3 {fill: #DF7BB2;}
      .cls-4 {fill: #1372E0;}
      .cls-5 {fill: ##B87525;}
      .cls-6 {fill: #185130;}
      .cls-7 {fill: ##198872;}
      .cls-8 {fill: #208DD5;}
      .cls-9 {fill: url(#GradientFill_40);}
      .cls-10 {fill: url(#GradientFill_40-2);}
      .cls-11 {fill: #1A5C86;}
      .cls-12 {fill: url(#GradientFill_40-3);}
      .cls-13 {fill: url(#GradientFill_40-4);}
      .cls-14 {fill: url(#GradientFill_71);}
      .cls-15 {fill: url(#GradientFill_40-5);}
      .cls-16 {fill: url(#GradientFill_71-2);}
      .cls-17 {fill: url(#GradientFill_40-6);}
      .cls-18 {fill: #22BCCC;}
      .cls-19 {fill: url(#GradientFill_40-7);}
      .cls-20 {fill: url(#GradientFill_40-8);}
      .cls-21 {fill: url(#GradientFill_40-9);}
      .cls-22 {fill: url(#GradientFill_40-10);}
      .cls-23 {fill: url(#GradientFill_40-11);}
      .cls-24 {fill: #E26518;}
      .cls-25 {fill: #D73487;}
      .cls-26 {fill: ##198872;}
      .cls-27 {fill: #3F9250;}
      .cls-28 {fill: #B839C1;}
      .cls-29 {fill: #04056F;}
      .cls-30 {fill: #D066E9;}
      .cls-31 {fill: #282151;}
      .cls-32 {fill: url(#GradientFill_40-12);}
      .cls-33 {fill: url(#GradientFill_40-13);}
	</style>
    <linearGradient id="GradientFill_40" data-name="randomname 40" x1="57.43" y1="96.83" x2="75.97" y2="96.83" gradientUnits="userSpaceOnUse">
      <stop offset="0" stop-color="#efa737"/>
      <stop offset="0.17" stop-color="#ffd939"/>
      <stop offset="0.36" stop-color="#ffefad"/>
      <stop offset="0.66" stop-color="#ffd939"/>
      <stop offset="1" stop-color="#eda137"/>
    </linearGradient>
    <linearGradient id="GradientFill_40-2" x1="60.61" y1="29.94" x2="66.81" y2="29.94" xlink:href="#GradientFill_40"/>
    <linearGradient id="GradientFill_40-3" x1="53.27" y1="68.7" x2="71.26" y2="68.7" xlink:href="#GradientFill_40"/>
    <linearGradient id="GradientFill_40-4" x1="89.35" y1="98.42" x2="40.05" y2="100.42" xlink:href="#GradientFill_40"/>
    <linearGradient id="GradientFill_71" data-name="randomname 71" x1="87.1" y1="43.13" x2="37.81" y2="45.13" gradientUnits="userSpaceOnUse">
      <stop offset="0" stop-color="#ff8e21"/>
      <stop offset="0.17" stop-color="#ffc033"/>
      <stop offset="0.36" stop-color="#ffe3a4"/>
      <stop offset="0.66" stop-color="#ffc033"/>
      <stop offset="1" stop-color="#ff871f"/>
    </linearGradient>
    <linearGradient id="GradientFill_40-5" x1="86.53" y1="29.15" x2="37.24" y2="31.15" xlink:href="#GradientFill_40"/>
    <linearGradient id="GradientFill_71-2" x1="88.94" y1="88.52" x2="39.65" y2="90.52" xlink:href="#GradientFill_71"/>
    <linearGradient id="GradientFill_40-6" x1="88.08" y1="67.26" x2="38.79" y2="69.26" xlink:href="#GradientFill_40"/>
    <linearGradient id="GradientFill_40-7" x1="46.39" y1="29.21" x2="97.23" y2="27.67" xlink:href="#GradientFill_40"/>
    <linearGradient id="GradientFill_40-8" x1="48.8" y1="109.04" x2="99.63" y2="107.51" xlink:href="#GradientFill_40"/>
    <linearGradient id="GradientFill_40-9" x1="48.41" y1="95.99" x2="99.24" y2="94.46" xlink:href="#GradientFill_40"/>
    <linearGradient id="GradientFill_40-10" x1="47.8" y1="75.92" x2="98.63" y2="74.39" xlink:href="#GradientFill_40"/>
    <linearGradient id="GradientFill_40-11" x1="47.11" y1="53.09" x2="97.95" y2="51.56" xlink:href="#GradientFill_40"/>
    <linearGradient id="GradientFill_40-12" x1="12.13" y1="169.93" x2="62.26" y2="169.93" xlink:href="#GradientFill_40"/>
    <linearGradient id="GradientFill_40-13" x1="61.93" y1="169.93" x2="112.05" y2="169.93" xlink:href="#GradientFill_40"/>
  </defs>
  <g id="Layer_2" data-name="Layer 2">
    <g id="Base">
      <g id="MainGroup">
        <g id="Horn2">
  <path class="cls-2" d="M72.52,67C71.4,57.55,70.23,48,69.17,39.7c-4.15,5.58-8.55,10.72-12,14.54-1.28,10.45-2.58,21.51-3.64,31.33A106.09,106.09,0,0,0,72.52,67Z"/>
  <path class="cls-2" d="M56.77,120.45a22,22,0,0,0,3,1,16.5,16.5,0,0,0,8.6,0c3.22-.86,7.23-2.61,8.33-6,.43-1.37.1-7.48-.68-16.07C69.16,110.13,62,116.67,56.77,120.45Z"/>
  <path class="cls-18" d="M65.8,13.63S65,8,64.07,8s-1.72,5.66-1.72,5.66-2.27,17-4.76,37.14C61,46.88,65.08,42,68.81,36.83,67.1,23.37,65.8,13.63,65.8,13.63Z"/>
  <path class="cls-18" d="M75.71,96.1C75,88.43,74,79.21,72.84,69.75A110.72,110.72,0,0,1,53.23,88.28c-1.5,14.2-2.39,25.28-1.78,27.19a7.47,7.47,0,0,0,3.28,3.91C60.21,115.56,68.25,108.43,75.71,96.1Z"/>
</g>
		<g id="Eyes1">
  <path class="cls-24" d="M51.5,171.1a5,5,0,0,1-1.69-.23,11.72,11.72,0,0,0,1.48-2.05c.72-1.24.61-1.94.29-1.73s-3.45,5-9.45,4.67-7.34-6-7.34-6a23,23,0,0,0-2.62.47h0a11.5,11.5,0,0,1-6.47.45,7.83,7.83,0,0,0,7.18,2.5,2.39,2.39,0,0,0,.13.21,9.16,9.16,0,0,1-5.78,2.11c2.31,2.09,6.67.76,7.93.31l.43.32a8.9,8.9,0,0,1-4.65,3.62,7.84,7.84,0,0,0,7.18-2.29,10,10,0,0,0,1.41.39,4.79,4.79,0,0,1-1.2,3.43c2.81-1.06,3.59-2.48,3.8-3.18a14.94,14.94,0,0,0,1.7-.12,2.71,2.71,0,0,0,1.79,1.74,2.87,2.87,0,0,1-.39-2,10,10,0,0,0,3.09-1.45,7.86,7.86,0,0,0,2.26.39,4.94,4.94,0,0,1-1.76-.78c.23-.19.45-.38.64-.57A6.87,6.87,0,0,0,51.5,171.1Z"/>
  <path class="cls-24" d="M76.23,171.1a5,5,0,0,0,1.69-.23,11.72,11.72,0,0,1-1.48-2.05c-.72-1.24-.61-1.94-.29-1.73s3.45,5,9.45,4.67,7.34-6,7.34-6a23,23,0,0,1,2.62.47h0a11.53,11.53,0,0,0,6.48.45,7.84,7.84,0,0,1-7.18,2.5l-.14.21a9.18,9.18,0,0,0,5.79,2.11c-2.31,2.09-6.67.76-7.94.31l-.43.32a8.93,8.93,0,0,0,4.65,3.62,7.84,7.84,0,0,1-7.18-2.29,9.67,9.67,0,0,1-1.41.39,4.83,4.83,0,0,0,1.2,3.43c-2.81-1.06-3.58-2.48-3.8-3.18a14.6,14.6,0,0,1-1.69-.12,2.76,2.76,0,0,1-1.8,1.74,2.87,2.87,0,0,0,.39-2,10,10,0,0,1-3.09-1.45,7.79,7.79,0,0,1-2.26.39,4.94,4.94,0,0,0,1.76-.78c-.23-.19-.45-.38-.64-.57A6.88,6.88,0,0,1,76.23,171.1Z"/>
</g>
		<g id="Ears1">
  <path class="cls-6" d="M35.11,111.75S35.22,96,3.66,90.84C4.89,111,9,122,25.24,125.35c-.74-.26,3.63-1.87,2.84-2.11-12.63-3.73-19.42-17.15-18.23-25.3,12.26-.45,21.2,9.23,23,17.28C34.83,116.47,35.11,111.75,35.11,111.75Z"/>
  <path class="cls-6" d="M93.37,111.75S93.26,96,124.81,90.84c-1.22,20.11-5.37,31.12-21.58,34.51.74-.26-3.63-1.87-2.84-2.11,12.63-3.73,19.42-17.15,18.24-25.3-12.26-.45-21.21,9.23-23,17.28C93.64,116.47,93.37,111.75,93.37,111.75Z"/>
</g>
        <g id="Crown1">
          <path class="cls-25" d="M61.6,111.72a54.57,54.57,0,0,0-10.84,1.4c-.54-1.59-1.14-3.18-1.72-4.62,3.45-.66,4-3.76,4.46-6.77.1-.62.21-1.26.34-1.88a8.48,8.48,0,0,0,7.77,4.27v-1c-5.47,0-7.1-4-7.38-4.82a10.66,10.66,0,0,1,.5-1.33c2-4.26,6.68-4.35,6.88-4.35v-1c-.22,0-5.55.08-7.8,5a19.24,19.24,0,0,0-1.32,5c-.5,3.06-.93,5.49-3.85,6-.87-2.09-1.62-3.72-1.92-4.35a12.46,12.46,0,0,0,.82-2.13C49,96.54,52.17,87.21,61.61,87.21v-1c-10.18,0-13.47,9.81-15,14.52a16.8,16.8,0,0,1-.73,1.94c-.76-.22-3.41-3-7-8l-.31-.36-.79.45.41,1.2c3.59,10.2,2.66,11.13,2.42,11.23h0c-1,0-5.67-4-9.53-7.66l-.78.67c.08.1,7.73,10.67,11.21,17.3l.27.5.47-.31c7.18-4.69,19.35-4.89,19.47-4.89Zm-21.8-14c2.15,2.78,4.74,5.81,6,6,0,0,0,0,.05,0a98.6,98.6,0,0,1,3.94,9.7,33.85,33.85,0,0,0-4.27,1.41,50.74,50.74,0,0,0-4.07-7.08C42.24,106.6,41.75,103.53,39.8,97.69Zm2.25,18.79c-2.19-4.06-5.73-9.36-8.21-12.94,2.78,2.46,5.42,4.5,6.63,4.62a48.7,48.7,0,0,1,4.06,7A24.24,24.24,0,0,0,42.05,116.48Z"/>
          <path class="cls-25" d="M32.62,99.63a2.43,2.43,0,1,0-2.43,2.42A2.43,2.43,0,0,0,32.62,99.63Z"/>
          <path class="cls-25" d="M40.31,94.2a2.42,2.42,0,1,0-2.42,2.42A2.42,2.42,0,0,0,40.31,94.2Z"/>
          <path class="cls-25" d="M61.61,112.75c.12,0,12.29.2,19.47,4.89l.47.31.27-.5C85.3,110.82,93,100.25,93,100.15l-.78-.67c-3.86,3.7-8.58,7.66-9.53,7.66h0c-.24-.1-1.17-1,2.42-11.23l.41-1.2-.79-.45-.31.36c-3.63,5-6.28,7.8-7,8a16.8,16.8,0,0,1-.73-1.94c-1.58-4.71-4.87-14.52-15-14.52v1c9.44,0,12.57,9.33,14.08,13.82a12.46,12.46,0,0,0,.82,2.13c-.3.63-1.05,2.26-1.92,4.35-2.92-.46-3.35-2.89-3.85-6a19.24,19.24,0,0,0-1.32-5c-2.25-4.87-7.58-5-7.8-5v1c.2,0,4.91.09,6.88,4.35a10.66,10.66,0,0,1,.5,1.33c-.28.81-1.91,4.82-7.38,4.82v1a8.48,8.48,0,0,0,7.77-4.27c.13.62.24,1.26.34,1.88.5,3,1,6.11,4.46,6.77-.58,1.44-1.18,3-1.72,4.62a54.57,54.57,0,0,0-10.84-1.4Zm20.2-5a50.74,50.74,0,0,0-4.07,7.08,33.85,33.85,0,0,0-4.27-1.41,98.6,98.6,0,0,1,3.94-9.7s0,0,0,0c1.22-.17,3.81-3.2,6-6C81.47,103.53,81,106.6,81.81,107.7Zm-3.12,7.49a48.7,48.7,0,0,1,4.06-7C84,108,86.6,106,89.38,103.54c-2.48,3.58-6,8.88-8.21,12.94A24.24,24.24,0,0,0,78.69,115.19Z"/>
          <path class="cls-25" d="M90.6,99.63A2.43,2.43,0,1,1,93,102.05,2.43,2.43,0,0,1,90.6,99.63Z"/>
          <path class="cls-25" d="M82.91,94.2a2.42,2.42,0,1,1,2.42,2.42A2.42,2.42,0,0,1,82.91,94.2Z"/>
          <path class="cls-25" d="M64.72,103.54a3.12,3.12,0,1,0-3.11,3.12A3.12,3.12,0,0,0,64.72,103.54Z"/>
          <path class="cls-26" d="M63.68,103.54a2.07,2.07,0,1,0-2.07,2.07A2.07,2.07,0,0,0,63.68,103.54Z"/>
          <path class="cls-11" d="M63.05,103.54A1.45,1.45,0,1,0,61.61,105,1.44,1.44,0,0,0,63.05,103.54Z"/>
        </g>
        <g id="HeartInHair">
          <path class="cls-27" d="M7.68,124.31,16,133.57S1.48,133.34.13,127C-.95,121.87,5,121.29,7.68,124.31Z"/>
          <path class="cls-2" d="M7.65,124.33l8.28,9.26s1.39-14.41-4.8-16.47C6.19,115.48,5,121.31,7.65,124.33Z"/>
        </g>
        <g id="Leaf7">
          <path class="cls-28" d="M44.25,95.07l-4.89,25.08c1.67-.57,7.62-3.08,8-9.86A34.89,34.89,0,0,0,44.25,95.07Z"/>
          <path class="cls-29" d="M36,108.29a14.2,14.2,0,0,0,2.89,12l.44-.14,4.89-25.08S37.47,100.9,36,108.29Z"/>
        </g>
        <g id="Leaf6">
          <path class="cls-28" d="M64.7,111.31,49.53,123.15c1.23.5,5.85,2,9.42-1.65A26.38,26.38,0,0,0,64.7,111.31Z"/>
          <path class="cls-29" d="M53.49,114.76A10.73,10.73,0,0,0,49.2,123l.33.14L64.7,111.31S58,111.28,53.49,114.76Z"/>
        </g>
        <g id="Leaf5">
          <path class="cls-28" d="M4.52,130.09l25.21-4.19c-.62,1.65-3.29,7.53-10.08,7.72A34.93,34.93,0,0,1,4.52,130.09Z"/>
          <path class="cls-29" d="M18,122.24a14.21,14.21,0,0,1,11.91,3.22s-.05.17-.15.44L4.52,130.09S10.54,123.48,18,122.24Z"/>
        </g>
        <g id="Leaf4">
          <path class="cls-28" d="M3.32,156.43l14.3-14.58a8.81,8.81,0,0,1-3.08,9.28A30.89,30.89,0,0,1,3.32,156.43Z"/>
          <path class="cls-29" d="M8.5,145.45a12.31,12.31,0,0,1,9-3.93s0,.13.09.33L3.32,156.43S4.29,149.75,8.5,145.45Z"/>
        </g>
        <g id="Leaf3">
          <path class="cls-28" d="M121.7,154l-14.3-14.58a8.83,8.83,0,0,0,3.08,9.28A31,31,0,0,0,121.7,154Z"/>
          <path class="cls-29" d="M116.52,143a12.28,12.28,0,0,0-9-3.92s0,.12-.09.32L121.7,154S120.74,147.28,116.52,143Z"/>
        </g>
        <g id="Leaf2">
          <path class="cls-28" d="M118.1,126.07l-25.55-.66c.85,1.55,4.31,7,11.06,6.26A34.93,34.93,0,0,0,118.1,126.07Z"/>
          <path class="cls-29" d="M103.7,120.16A14.23,14.23,0,0,0,92.34,125l.21.41,25.55.66S111.22,120.36,103.7,120.16Z"/>
        </g>
        <g id="Leaf1">
          <path class="cls-28" d="M58.64,122.63l24,8.71c-1.35,1.13-6.56,4.95-12.57,1.79A35,35,0,0,1,58.64,122.63Z"/>
          <path class="cls-29" d="M74.21,122.38A14.23,14.23,0,0,1,83,131l-.35.31-24-8.71S67.13,119.82,74.21,122.38Z"/>
        </g>
        <g id="FlowerInHair1">
          <path class="cls-2" d="M50.83,127.17A4.5,4.5,0,0,0,54,123.05c.11-3.27-1.59-4.16-1.59-4.16a7.58,7.58,0,0,0-5.19-8c-5.95-2.11-8,1.82-8,1.82s-4.56-7-10.11-3.43-2.06,9.06-2.06,9.06-7.56,4.39-5.22,10.55,6.83,4.45,6.83,4.45.11,7.5,6.83,6.78,7.23-6.12,7.23-6.12a5.26,5.26,0,0,0,6.61-.16A5.42,5.42,0,0,0,50.83,127.17Z"/>
          <path class="cls-27" d="M50.83,127.17a8.49,8.49,0,0,0-.55-7.89c-2.53-3.78-7.41-1.52-7.41-1.52S41.46,114,38.2,114s-6.15,3-5.11,5.11c-6.6,2.66-4.54,10.48-2.87,11.31a5.58,5.58,0,0,0,3.89,0s.22,4.5,5.16,3.5,3.5-5.77,3.5-5.77,2.58-2.75,1.24-5.38-4.55-.92-4.55-.63-2.56-1.55-4-.07,1.22,3.11,1.22,3.11-2.81,1.48-1.07,3.11,3.85-1,3.85-1,2.85-.26,1.48-2.18-1.67.74-1.89,1.52-2.31,2.22-3.14,1.25,1.5-2.61,1.5-2.61-2.61-1.7-1.59-2.81,3.68.48,3.68.48,2.6-2.25,3.89-.12-1.5,5.35-1.5,5.35,1.86,4.27-2.55,5.15-4.81-3.6-4.81-3.6-3.89,1.47-5.11-1.53,0-6.25,1.8-7.38a14,14,0,0,1,2.55-1.4,4.15,4.15,0,0,1,3.75-4.75c4.33-.56,5,4.19,5,4.19s3.87-2.64,6.58.14S50.83,127.17,50.83,127.17Z"/>
        </g>
        <g id="FlowerInHair2">
          <path class="cls-18" d="M76.09,113.34s-.23-6.11,5.11-7.11,6.11,3.56,6.11,3.56,5.67-3.34,9.22.55,0,7.89,0,7.89,6.89.56,6.67,7.34-7,7.66-7,7.66-1.37,5.85-8.63,5.33-7.41-4.11-7.41-4.11a6.1,6.1,0,0,1-7.63-.37c-3.93-3.26-.44-8.14-.44-8.14s-4.12-1.19-3.41-6.38C69.57,113.05,76.09,113.34,76.09,113.34Z"/>
          <path class="cls-2" d="M76.09,113.28s5.26-2.81,9-.81A5,5,0,0,1,87.94,118s4.22-.81,5.48,1.26a4.55,4.55,0,0,1,0,4.3s3.33,4-.59,7.7a5.08,5.08,0,0,1-7.42,0s-4.36,1.93-7.25-1-.81-5.18-.81-5.18-1.82-2.72-.37-4.93,5.72,0,5.72,0,2.41-2.32,4.53-1.26,1,3.7,1,3.7a2.6,2.6,0,0,1,3,1.75c.66,2.19-3.2,2-3.2,2s1.28,2.2-1.64,2.56-2.66-2-2.66-2a1.64,1.64,0,0,1-1.54-1.52c0-1.42,2.15-1,2.2-.84s-.75-2.16.62-1.89,1.16,1.39.75,1.48a6.87,6.87,0,0,0-1,.33v.31s-2.55-.13-2.2.86,1.73.86,1.73.86-.34,2.28,2,1.86.91-2.5.91-2.5,3.84.47,3.62-1.33-3.2-1.59-3.2-1.59,1.11-2.44-.58-3.64S82.81,121,82.81,121s-3.28-1.81-5.2-.47.75,4.72.75,4.72-2.58,2.3.59,5,6.69-.14,6.69-.14,3.7,3.72,6.89.8.06-7.25.06-7.25a3.22,3.22,0,0,0,0-4.22c-1.86-2-5.11-.81-5.11-.81A5.49,5.49,0,0,0,84.42,113C81.23,111.34,76.09,113.28,76.09,113.28Z"/>
        </g>
        <g id="FlowerInHair3">
          <path class="cls-30" d="M62.66,119.92h0c-2.78-2.18-5.72,6.15-5.72,6.15l.55.43h0l.54.43S65.43,122.09,62.66,119.92Z"/>
          <path class="cls-30" d="M52.32,133.09h0c-2.77-2.18,4.62-7,4.62-7l.55.43h0l.54.43S55.1,135.27,52.32,133.09Z"/>
          <path class="cls-30" d="M50.9,121.34h0c2.18-2.78,7,4.62,7,4.62l-.43.54h0l-.43.55S48.72,124.11,50.9,121.34Z"/>
          <path class="cls-30" d="M64.08,131.67h0c2.17-2.77-6.16-5.71-6.16-5.71l-.43.54h0l-.43.55S61.9,134.45,64.08,131.67Z"/>
          <path class="cls-4" d="M56.48,118.19h0c-3.5.42.32,8.4.32,8.4l.69-.09h0l.69-.08S60,117.77,56.48,118.19Z"/>
          <path class="cls-4" d="M58.49,134.82h0c-3.5.42-1.69-8.23-1.69-8.23l.69-.09h0l.69-.08S62,134.39,58.49,134.82Z"/>
          <path class="cls-4" d="M49.18,127.51h0c-.43-3.5,8.22-1.7,8.22-1.7l.09.69h0l.08.69S49.6,131,49.18,127.51Z"/>
          <path class="cls-4" d="M65.8,125.5h0c-.42-3.5-8.4.31-8.4.31l.09.69h0l.08.69S66.22,129,65.8,125.5Z"/>
          <path class="cls-26" d="M59.41,126.2a2,2,0,1,0-1.74,2.22A2,2,0,0,0,59.41,126.2Z"/>
          <path class="cls-11" d="M58.81,126.27a1.39,1.39,0,1,0-2.76.34,1.38,1.38,0,0,0,1.54,1.21A1.4,1.4,0,0,0,58.81,126.27Z"/>
        </g>
        <g id="FlowerInHair4">
          <path class="cls-27" d="M115.06,133.74h0c-1.54-4.52-11,2.77-11,2.77l.31.89h0l.3.89S116.6,138.26,115.06,133.74Z"/>
          <path class="cls-27" d="M93.61,141.05h0c-1.54-4.52,10.42-4.54,10.42-4.54l.31.89h0l.3.89S95.15,145.57,93.61,141.05Z"/>
          <path class="cls-27" d="M100.68,126.67h0c4.52-1.54,4.55,10.42,4.55,10.42l-.89.31h0l-.89.3S96.16,128.21,100.68,126.67Z"/>
          <path class="cls-27" d="M108,148.12h0c4.51-1.54-2.77-11-2.77-11l-.89.31h0l-.89.3S103.48,149.66,108,148.12Z"/>
          <path class="cls-2" d="M109.34,127.22h0c-4.29-2.1-5.85,9.76-5.85,9.76l.85.42h0l.84.41S113.62,129.33,109.34,127.22Z"/>
          <path class="cls-2" d="M99.34,147.57h0c-4.28-2.11,4.15-10.59,4.15-10.59l.85.42h0l.84.41S103.62,149.67,99.34,147.57Z"/>
          <path class="cls-2" d="M94.17,132.4h0c2.1-4.29,10.58,4.15,10.58,4.15l-.41.85h0l-.42.84S92.06,136.68,94.17,132.4Z"/>
          <path class="cls-2" d="M114.51,142.39h0c2.1-4.28-9.76-5.84-9.76-5.84l-.41.85h0l-.42.84S112.4,146.68,114.51,142.39Z"/>
          <path class="cls-26" d="M106.74,138.47a2.7,2.7,0,1,0-3.62,1.23A2.7,2.7,0,0,0,106.74,138.47Z"/>
          <path class="cls-11" d="M106,138.11a1.88,1.88,0,1,0-2.51.85A1.88,1.88,0,0,0,106,138.11Z"/>
        </g>
        <g id="FlowerInHair5">
          <path class="cls-27" d="M23.67,133h0c-3.19-1.79-4.87,7.22-4.87,7.22l.63.35h0l.63.36S26.86,134.75,23.67,133Z"/>
          <path class="cls-27" d="M15.2,148.12h0c-3.2-1.79,3.6-7.93,3.6-7.93l.63.35h0l.63.36S18.39,149.9,15.2,148.12Z"/>
          <path class="cls-27" d="M11.86,136.31h0c1.78-3.19,7.92,3.61,7.92,3.61l-.35.62h0l-.35.63S10.07,139.5,11.86,136.31Z"/>
          <path class="cls-27" d="M27,144.78h0c1.78-3.19-7.23-4.86-7.23-4.86l-.35.62h0l-.35.63S25.22,148,27,144.78Z"/>
          <path class="cls-2" d="M17.07,132.19h0c-3.52,1,1.67,8.55,1.67,8.55l.69-.2h0l.7-.19S20.59,131.2,17.07,132.19Z"/>
          <path class="cls-2" d="M21.79,148.9h0c-3.51,1-3.05-8.16-3.05-8.16l.69-.2h0l.7-.19S25.31,147.9,21.79,148.9Z"/>
          <path class="cls-2" d="M11.08,142.91h0c-1-3.52,8.16-3.06,8.16-3.06l.19.69h0l.2.7S12.08,146.42,11.08,142.91Z"/>
          <path class="cls-2" d="M27.79,138.18h0c-1-3.52-8.55,1.67-8.55,1.67l.19.69h0l.2.7S28.78,141.7,27.79,138.18Z"/>
          <path class="cls-26" d="M21.35,139.93a2.07,2.07,0,1,0-1.43,2.55A2.07,2.07,0,0,0,21.35,139.93Z"/>
          <path class="cls-11" d="M20.75,140.1a1.44,1.44,0,1,0-1,1.77A1.44,1.44,0,0,0,20.75,140.1Z"/>
        </g>
        <g id="FaceSpot1">
  <ellipse id="FaceSpot1-2" data-name="FaceSpot1" class="cls-31" cx="33.24" cy="185.32" rx="10.08" ry="5.44"/>
  <ellipse id="FaceSpot2-2" data-name="FaceSpot2" class="cls-31" cx="95.64" cy="185.32" rx="10.08" ry="5.44"/>
</g>
		<g id="Glasses1">
  <path class="cls-25" d="M37.42,188a18.07,18.07,0,1,1,18.07-18.07A18.09,18.09,0,0,1,37.42,188Zm0-34.88a16.81,16.81,0,1,0,16.81,16.81A16.83,16.83,0,0,0,37.42,153.12Z"/>
  <path class="cls-25" d="M54.86,169.68v-.84c1.55,0,2.15-1.24,3.06-3.42l.15-.35c1-2.39,4-2.36,4.13-2.36v.84s-2.55,0-3.35,1.85l-.14.34C57.85,167.77,57.05,169.68,54.86,169.68Z"/>
  <path class="cls-25" d="M68.91,169.93A18.07,18.07,0,1,1,87,188,18.09,18.09,0,0,1,68.91,169.93Zm1.26,0A16.81,16.81,0,1,0,87,153.12,16.83,16.83,0,0,0,70.17,169.93Z"/>
  <path class="cls-25" d="M69.54,169.68v-.84c-1.55,0-2.15-1.24-3.06-3.42l-.15-.35c-1-2.39-4-2.36-4.13-2.36v.84s2.55,0,3.35,1.85l.14.34C66.55,167.77,67.35,169.68,69.54,169.68Z"/>
</g>
      </g>
    </g>
  </g>
</svg>
